<svg xmlns="http://www.w3.org/2000/svg" xmlns:xlink="http://www.w3.org/1999/xlink" version="1.1" x="0px" y="0px" viewBox="0 0 128 160" enable-background="new 0 0 128 128" xml:space="preserve"><g><path d="M12.5,10.7H1.8c-0.4,0-0.8,0.3-0.8,0.8v92.5c0,0.4,0.3,0.8,0.8,0.8h10.7c0.4,0,0.8-0.3,0.8-0.8V11.4   C13.2,11,12.9,10.7,12.5,10.7z M2.6,103.2v-91h9.2v7.9H8.8c-0.4,0-0.8,0.3-0.8,0.8c0,0.4,0.3,0.8,0.8,0.8h2.9v8.9H7   c-0.4,0-0.8,0.3-0.8,0.8c0,0.4,0.3,0.8,0.8,0.8h4.7v8.9H8.8c-0.4,0-0.8,0.3-0.8,0.8c0,0.4,0.3,0.8,0.8,0.8h2.9v8.9H7   c-0.4,0-0.8,0.3-0.8,0.8c0,0.4,0.3,0.8,0.8,0.8h4.7v8.9H8.8c-0.4,0-0.8,0.3-0.8,0.8c0,0.4,0.3,0.8,0.8,0.8h2.9V72H7   c-0.4,0-0.8,0.3-0.8,0.8c0,0.4,0.3,0.8,0.8,0.8h4.7v8.9H8.8c-0.4,0-0.8,0.3-0.8,0.8c0,0.4,0.3,0.8,0.8,0.8h2.9v8.9H7   c-0.4,0-0.8,0.3-0.8,0.8c0,0.4,0.3,0.8,0.8,0.8h4.7v8.9H2.6z"/><path d="M95.6,113.2l-1.2,1.2c-0.3,0.3-0.3,0.8,0,1.1c0.1,0.1,0.3,0.2,0.5,0.2c0.2,0,0.4-0.1,0.5-0.2l1.2-1.2   c0.3-0.3,0.3-0.8,0-1.1C96.4,112.9,95.9,112.9,95.6,113.2z"/><path d="M91.6,117.2l-1.2,1.2c-0.3,0.3-0.3,0.8,0,1.1c0.1,0.1,0.3,0.2,0.5,0.2c0.2,0,0.4-0.1,0.5-0.2l1.2-1.2   c0.3-0.3,0.3-0.8,0-1.1C92.3,116.9,91.8,116.9,91.6,117.2z"/><path d="M95.4,117.2c-0.3-0.3-0.8-0.3-1.1,0c-0.3,0.3-0.3,0.8,0,1.1l1.2,1.2c0.1,0.1,0.3,0.2,0.5,0.2c0.2,0,0.4-0.1,0.5-0.2   c0.3-0.3,0.3-0.8,0-1.1L95.4,117.2z"/><path d="M91.4,113.2c-0.3-0.3-0.8-0.3-1.1,0c-0.3,0.3-0.3,0.8,0,1.1l1.2,1.2c0.1,0.1,0.3,0.2,0.5,0.2c0.2,0,0.4-0.1,0.5-0.2   c0.3-0.3,0.3-0.8,0-1.1L91.4,113.2z"/><path d="M104.4,3.3c0.2,0,0.4-0.1,0.5-0.2l1.2-1.2c0.3-0.3,0.3-0.8,0-1.1c-0.3-0.3-0.8-0.3-1.1,0L103.8,2c-0.3,0.3-0.3,0.8,0,1.1   C104,3.2,104.2,3.3,104.4,3.3z"/><path d="M100.3,7.3c0.2,0,0.4-0.1,0.5-0.2l1.2-1.2c0.3-0.3,0.3-0.8,0-1.1c-0.3-0.3-0.8-0.3-1.1,0L99.8,6c-0.3,0.3-0.3,0.8,0,1.1   C100,7.2,100.1,7.3,100.3,7.3z"/><path d="M105.1,7.1c0.1,0.1,0.3,0.2,0.5,0.2c0.2,0,0.4-0.1,0.5-0.2c0.3-0.3,0.3-0.8,0-1.1l-1.2-1.2c-0.3-0.3-0.8-0.3-1.1,0   c-0.3,0.3-0.3,0.8,0,1.1L105.1,7.1z"/><path d="M101.1,3c0.1,0.1,0.3,0.2,0.5,0.2c0.2,0,0.4-0.1,0.5-0.2c0.3-0.3,0.3-0.8,0-1.1l-1.2-1.2c-0.3-0.3-0.8-0.3-1.1,0   s-0.3,0.8,0,1.1L101.1,3z"/><path d="M120.1,93.4c-0.3-0.3-0.8-0.3-1.1,0l-1.2,1.2c-0.3,0.3-0.3,0.8,0,1.1c0.1,0.1,0.3,0.2,0.5,0.2c0.2,0,0.4-0.1,0.5-0.2   l1.2-1.2C120.4,94.2,120.4,93.7,120.1,93.4z"/><path d="M115,97.4l-1.2,1.2c-0.3,0.3-0.3,0.8,0,1.1c0.1,0.1,0.3,0.2,0.5,0.2c0.2,0,0.4-0.1,0.5-0.2l1.2-1.2c0.3-0.3,0.3-0.8,0-1.1   C115.8,97.1,115.3,97.1,115,97.4z"/><path d="M118.9,97.4c-0.3-0.3-0.8-0.3-1.1,0c-0.3,0.3-0.3,0.8,0,1.1l1.2,1.2c0.1,0.1,0.3,0.2,0.5,0.2c0.2,0,0.4-0.1,0.5-0.2   c0.3-0.3,0.3-0.8,0-1.1L118.9,97.4z"/><path d="M116.1,94.7l-1.2-1.2c-0.3-0.3-0.8-0.3-1.1,0c-0.3,0.3-0.3,0.8,0,1.1l1.2,1.2c0.1,0.1,0.3,0.2,0.5,0.2   c0.2,0,0.4-0.1,0.5-0.2C116.4,95.4,116.4,94.9,116.1,94.7z"/><path d="M113.1,82.6c0,2.1,1.7,3.8,3.8,3.8c2.1,0,3.8-1.7,3.8-3.8c0-2.1-1.7-3.8-3.8-3.8C114.8,78.8,113.1,80.5,113.1,82.6z    M116.9,80.3c1.3,0,2.3,1,2.3,2.3c0,1.3-1,2.3-2.3,2.3c-1.3,0-2.3-1-2.3-2.3C114.6,81.3,115.7,80.3,116.9,80.3z"/><path d="M8.2,110.5c-1.8,0-3.2,1.5-3.2,3.2c0,1.8,1.4,3.2,3.2,3.2c1.8,0,3.2-1.4,3.2-3.2C11.5,112,10,110.5,8.2,110.5z M8.2,115.5   c-1,0-1.7-0.8-1.7-1.7s0.8-1.7,1.7-1.7s1.7,0.8,1.7,1.7S9.2,115.5,8.2,115.5z"/><path d="M74.5,8c1.8,0,3.2-1.4,3.2-3.2c0-1.8-1.5-3.2-3.2-3.2c-1.8,0-3.2,1.4-3.2,3.2C71.2,6.5,72.7,8,74.5,8z M74.5,3   c1,0,1.7,0.8,1.7,1.7s-0.8,1.7-1.7,1.7c-1,0-1.7-0.8-1.7-1.7S73.5,3,74.5,3z"/><path d="M126.2,112.3H115c-0.4,0-0.8,0.3-0.8,0.8c0,0.4,0.3,0.8,0.8,0.8h11.2c0.4,0,0.8-0.3,0.8-0.8   C126.9,112.7,126.6,112.3,126.2,112.3z"/><path d="M107.7,112.3c-0.4,0-0.8,0.3-0.8,0.8c0,0.4,0.3,0.8,0.8,0.8h3.6c0.4,0,0.8-0.3,0.8-0.8c0-0.4-0.3-0.8-0.8-0.8H107.7z"/><path d="M115.5,116.2h-7.8c-0.4,0-0.8,0.3-0.8,0.8c0,0.4,0.3,0.8,0.8,0.8h7.8c0.4,0,0.8-0.3,0.8-0.8   C116.3,116.5,115.9,116.2,115.5,116.2z"/><path d="M121.4,116.2h-2.5c-0.4,0-0.8,0.3-0.8,0.8c0,0.4,0.3,0.8,0.8,0.8h2.5c0.4,0,0.8-0.3,0.8-0.8   C122.1,116.5,121.8,116.2,121.4,116.2z"/><path d="M42,3.6h11.2c0.4,0,0.8-0.3,0.8-0.8s-0.3-0.8-0.8-0.8H42c-0.4,0-0.8,0.3-0.8,0.8S41.5,3.6,42,3.6z"/><path d="M34.7,3.6h3.6c0.4,0,0.8-0.3,0.8-0.8s-0.3-0.8-0.8-0.8h-3.6c-0.4,0-0.8,0.3-0.8,0.8S34.2,3.6,34.7,3.6z"/><path d="M34.7,7.4h7.8c0.4,0,0.8-0.3,0.8-0.8s-0.3-0.8-0.8-0.8h-7.8c-0.4,0-0.8,0.3-0.8,0.8S34.2,7.4,34.7,7.4z"/><path d="M45.8,5.9c-0.4,0-0.8,0.3-0.8,0.8s0.3,0.8,0.8,0.8h2.5c0.4,0,0.8-0.3,0.8-0.8s-0.3-0.8-0.8-0.8H45.8z"/><path d="M42.8,83.5c0.1,0,0.2,0.1,0.3,0.1c0.3,0,0.6-0.2,0.7-0.5c0.3-0.6,0.4-1.3,0.4-2c0-0.1,0-0.3,0-0.4   c-0.1-0.8-0.3-1.6-0.7-2.3c-0.2-0.4-0.7-0.5-1-0.3c-0.4,0.2-0.5,0.7-0.3,1c0.3,0.5,0.5,1.1,0.5,1.7c0,0.1,0,0.2,0,0.3   c0,0.5-0.1,1-0.3,1.5C42.2,83,42.4,83.4,42.8,83.5z"/><path d="M34.4,85.9c0-0.4-0.3-0.8-0.8-0.8h-4.3c-0.4,0-0.8,0.3-0.8,0.8s0.3,0.8,0.8,0.8h4.3C34.1,86.6,34.4,86.3,34.4,85.9z"/><path d="M40.6,84.6c-0.6,0.4-1.3,0.5-2,0.5h-1.7c-0.4,0-0.8,0.3-0.8,0.8s0.3,0.8,0.8,0.8h1.7c1,0,1.9-0.3,2.8-0.8   c0.4-0.2,0.5-0.7,0.3-1C41.5,84.5,41,84.4,40.6,84.6z"/><path d="M26.9,85.9c0-0.4-0.3-0.8-0.8-0.8h-2c-0.1,0-0.2,0-0.4,0.1c-0.5,0.1-1,0.2-1.4,0.4c-0.4,0.2-0.5,0.6-0.4,1   c0.1,0.3,0.4,0.4,0.7,0.4c0.1,0,0.2,0,0.3-0.1c0.5-0.2,1.1-0.3,1.6-0.3c0.1,0,0.1,0,0.2,0h1.3C26.6,86.6,26.9,86.3,26.9,85.9z"/><path d="M22.4,94.8c-0.3-0.3-0.8-0.3-1.1,0.1c-0.3,0.3-0.3,0.8,0.1,1.1c1.2,1.1,2.8,1.7,4.4,1.8c0,0,0,0,0,0c0.4,0,0.7-0.3,0.8-0.7   c0-0.4-0.3-0.8-0.7-0.8C24.6,96.2,23.4,95.7,22.4,94.8z"/><path d="M20.7,87.8c-0.4-0.2-0.8,0-1,0.3c-0.4,0.8-0.6,1.7-0.6,2.5c0,0.8,0.1,1.5,0.4,2.2c0.1,0.3,0.4,0.5,0.7,0.5   c0.1,0,0.2,0,0.2,0c0.4-0.1,0.6-0.6,0.5-1c-0.2-0.6-0.3-1.2-0.3-1.8c0-0.6,0.1-1.3,0.4-1.8C21.2,88.5,21.1,88,20.7,87.8z"/><path d="M33.4,96.9c-0.6-0.4-1.3-0.6-2-0.6c-0.1,0-0.2-0.1-0.3-0.1h-2c-0.4,0-0.8,0.3-0.8,0.8c0,0.4,0.3,0.8,0.8,0.8h1.7   c0.1,0,0.2,0.1,0.3,0.1c0.5,0,1.1,0.1,1.5,0.4c0.1,0.1,0.3,0.1,0.4,0.1c0.3,0,0.5-0.1,0.6-0.4C33.9,97.6,33.7,97.1,33.4,96.9z"/><path d="M99.9,89C99.9,89,99.9,89,99.9,89c0-1.4-1.1-2-1.9-2.5c-0.8-0.5-1.2-0.7-1.2-1.2s0.4-0.7,1.2-1.2c0.9-0.5,1.9-1.1,1.9-2.5   c0-1.3-1.1-2-1.9-2.5c-0.8-0.5-1.2-0.7-1.2-1.2c0-0.4-0.3-0.8-0.8-0.8c-0.4,0-0.8,0.3-0.8,0.8c0,1.3,1.1,2,1.9,2.5   c0.8,0.5,1.2,0.7,1.2,1.2c0,0.4-0.4,0.7-1.2,1.2c-0.9,0.5-1.9,1.1-1.9,2.5c0,1.3,1.1,2,1.9,2.5c0.8,0.5,1.2,0.7,1.2,1.2   c0,0,0,0,0,0c-3.4,0.3-6,3.2-6,6.6v7c0,3.6,3,6.6,6.6,6.6h0.4c3.6,0,6.6-3,6.6-6.6v-7C106.1,92.1,103.4,89.3,99.9,89z M104.6,102.6   c0,2.8-2.3,5.1-5.1,5.1h-0.4c-2.8,0-5.1-2.3-5.1-5.1v-7c0-2.6,2-4.8,4.5-5.1v3.6c0,0.4,0.3,0.8,0.8,0.8c0.4,0,0.8-0.3,0.8-0.8v-3.6   c2.6,0.3,4.5,2.4,4.5,5.1V102.6z"/><path d="M81,103.6H35.1c0.3-0.1,0.5-0.4,0.5-0.7v-2c0-0.4-0.3-0.8-0.8-0.8c-0.4,0-0.8,0.3-0.8,0.8v2c0,0.3,0.2,0.6,0.5,0.7H19.7   c-1.2,0-2.2,1-2.2,2.2v19.5c0,1.2,1,2.2,2.2,2.2H81c1.2,0,2.2-1,2.2-2.2v-19.5C83.2,104.5,82.2,103.6,81,103.6z M81.7,125.3   c0,0.4-0.3,0.7-0.7,0.7H19.7c-0.4,0-0.7-0.3-0.7-0.7v-19.5c0-0.4,0.3-0.7,0.7-0.7H81c0.4,0,0.7,0.3,0.7,0.7V125.3z"/><path d="M62.2,108.1h-2c-0.4,0-0.8,0.3-0.8,0.8s0.3,0.8,0.8,0.8h2c0.4,0,0.8-0.3,0.8-0.8S62.6,108.1,62.2,108.1z"/><path d="M56.2,108.1h-2c-0.4,0-0.8,0.3-0.8,0.8s0.3,0.8,0.8,0.8h2c0.4,0,0.8-0.3,0.8-0.8S56.6,108.1,56.2,108.1z"/><path d="M50.2,108.1h-2c-0.4,0-0.8,0.3-0.8,0.8s0.3,0.8,0.8,0.8h2c0.4,0,0.8-0.3,0.8-0.8S50.6,108.1,50.2,108.1z"/><path d="M68.3,108.1h-2c-0.4,0-0.8,0.3-0.8,0.8s0.3,0.8,0.8,0.8h2c0.4,0,0.8-0.3,0.8-0.8S68.7,108.1,68.3,108.1z"/><path d="M74.3,108.1h-2c-0.4,0-0.8,0.3-0.8,0.8s0.3,0.8,0.8,0.8h2c0.4,0,0.8-0.3,0.8-0.8S74.7,108.1,74.3,108.1z"/><path d="M36.1,109.6h2c0.4,0,0.8-0.3,0.8-0.8s-0.3-0.8-0.8-0.8h-2c-0.4,0-0.8,0.3-0.8,0.8S35.7,109.6,36.1,109.6z"/><path d="M30.1,109.6h2c0.4,0,0.8-0.3,0.8-0.8s-0.3-0.8-0.8-0.8h-2c-0.4,0-0.8,0.3-0.8,0.8S29.7,109.6,30.1,109.6z"/><path d="M42.2,109.6h2c0.4,0,0.8-0.3,0.8-0.8s-0.3-0.8-0.8-0.8h-2c-0.4,0-0.8,0.3-0.8,0.8S41.7,109.6,42.2,109.6z"/><path d="M26.1,108.1h-2c-0.4,0-0.8,0.3-0.8,0.8s0.3,0.8,0.8,0.8h2c0.4,0,0.8-0.3,0.8-0.8S26.5,108.1,26.1,108.1z"/><path d="M74.3,112.5h-2c-0.4,0-0.8,0.3-0.8,0.8c0,0.4,0.3,0.8,0.8,0.8h2c0.4,0,0.8-0.3,0.8-0.8C75,112.9,74.7,112.5,74.3,112.5z"/><path d="M50.2,112.5h-2c-0.4,0-0.8,0.3-0.8,0.8c0,0.4,0.3,0.8,0.8,0.8h2c0.4,0,0.8-0.3,0.8-0.8C50.9,112.9,50.6,112.5,50.2,112.5z"/><path d="M42.2,114h2c0.4,0,0.8-0.3,0.8-0.8c0-0.4-0.3-0.8-0.8-0.8h-2c-0.4,0-0.8,0.3-0.8,0.8C41.4,113.7,41.7,114,42.2,114z"/><path d="M36.1,114h2c0.4,0,0.8-0.3,0.8-0.8c0-0.4-0.3-0.8-0.8-0.8h-2c-0.4,0-0.8,0.3-0.8,0.8C35.4,113.7,35.7,114,36.1,114z"/><path d="M56.2,112.5h-2c-0.4,0-0.8,0.3-0.8,0.8c0,0.4,0.3,0.8,0.8,0.8h2c0.4,0,0.8-0.3,0.8-0.8C57,112.9,56.6,112.5,56.2,112.5z"/><path d="M68.3,112.5h-2c-0.4,0-0.8,0.3-0.8,0.8c0,0.4,0.3,0.8,0.8,0.8h2c0.4,0,0.8-0.3,0.8-0.8C69,112.9,68.7,112.5,68.3,112.5z"/><path d="M26.1,112.5h-2c-0.4,0-0.8,0.3-0.8,0.8c0,0.4,0.3,0.8,0.8,0.8h2c0.4,0,0.8-0.3,0.8-0.8C26.8,112.9,26.5,112.5,26.1,112.5z"/><path d="M62.2,112.5h-2c-0.4,0-0.8,0.3-0.8,0.8c0,0.4,0.3,0.8,0.8,0.8h2c0.4,0,0.8-0.3,0.8-0.8C63,112.9,62.6,112.5,62.2,112.5z"/><path d="M30.1,114h2c0.4,0,0.8-0.3,0.8-0.8c0-0.4-0.3-0.8-0.8-0.8h-2c-0.4,0-0.8,0.3-0.8,0.8C29.4,113.7,29.7,114,30.1,114z"/><path d="M74.3,117h-2c-0.4,0-0.8,0.3-0.8,0.8c0,0.4,0.3,0.8,0.8,0.8h2c0.4,0,0.8-0.3,0.8-0.8C75,117.4,74.7,117,74.3,117z"/><path d="M68.3,117h-2c-0.4,0-0.8,0.3-0.8,0.8c0,0.4,0.3,0.8,0.8,0.8h2c0.4,0,0.8-0.3,0.8-0.8C69,117.4,68.7,117,68.3,117z"/><path d="M26.1,117h-2c-0.4,0-0.8,0.3-0.8,0.8c0,0.4,0.3,0.8,0.8,0.8h2c0.4,0,0.8-0.3,0.8-0.8C26.8,117.4,26.5,117,26.1,117z"/><path d="M50.2,117h-2c-0.4,0-0.8,0.3-0.8,0.8c0,0.4,0.3,0.8,0.8,0.8h2c0.4,0,0.8-0.3,0.8-0.8C50.9,117.4,50.6,117,50.2,117z"/><path d="M56.2,117h-2c-0.4,0-0.8,0.3-0.8,0.8c0,0.4,0.3,0.8,0.8,0.8h2c0.4,0,0.8-0.3,0.8-0.8C57,117.4,56.6,117,56.2,117z"/><path d="M62.2,117h-2c-0.4,0-0.8,0.3-0.8,0.8c0,0.4,0.3,0.8,0.8,0.8h2c0.4,0,0.8-0.3,0.8-0.8C63,117.4,62.6,117,62.2,117z"/><path d="M42.2,118.5h2c0.4,0,0.8-0.3,0.8-0.8c0-0.4-0.3-0.8-0.8-0.8h-2c-0.4,0-0.8,0.3-0.8,0.8C41.4,118.2,41.7,118.5,42.2,118.5z"/><path d="M36.1,118.5h2c0.4,0,0.8-0.3,0.8-0.8c0-0.4-0.3-0.8-0.8-0.8h-2c-0.4,0-0.8,0.3-0.8,0.8C35.4,118.2,35.7,118.5,36.1,118.5z"/><path d="M32.9,117.8c0-0.4-0.3-0.8-0.8-0.8h-2c-0.4,0-0.8,0.3-0.8,0.8c0,0.4,0.3,0.8,0.8,0.8h2C32.5,118.5,32.9,118.2,32.9,117.8z"/><path d="M55,121.5h-2c-0.4,0-0.8,0.3-0.8,0.8c0,0.4,0.3,0.8,0.8,0.8h2c0.4,0,0.8-0.3,0.8-0.8C55.7,121.8,55.4,121.5,55,121.5z"/><path d="M78.7,121.5h-1.6c-0.4,0-0.8,0.3-0.8,0.8c0,0.4,0.3,0.8,0.8,0.8h1.6c0.4,0,0.8-0.3,0.8-0.8   C79.5,121.8,79.1,121.5,78.7,121.5z"/><path d="M73.1,121.5h-2c-0.4,0-0.8,0.3-0.8,0.8c0,0.4,0.3,0.8,0.8,0.8h2c0.4,0,0.8-0.3,0.8-0.8C73.8,121.8,73.5,121.5,73.1,121.5z"/><path d="M67,121.5h-2c-0.4,0-0.8,0.3-0.8,0.8c0,0.4,0.3,0.8,0.8,0.8h2c0.4,0,0.8-0.3,0.8-0.8C67.8,121.8,67.5,121.5,67,121.5z"/><path d="M61,121.5h-2c-0.4,0-0.8,0.3-0.8,0.8c0,0.4,0.3,0.8,0.8,0.8h2c0.4,0,0.8-0.3,0.8-0.8C61.8,121.8,61.4,121.5,61,121.5z"/><path d="M49.3,121.5H31.5c-0.4,0-0.8,0.3-0.8,0.8c0,0.4,0.3,0.8,0.8,0.8h17.7c0.4,0,0.8-0.3,0.8-0.8   C50,121.8,49.7,121.5,49.3,121.5z"/><path d="M26.1,121.5h-2c-0.4,0-0.8,0.3-0.8,0.8c0,0.4,0.3,0.8,0.8,0.8h2c0.4,0,0.8-0.3,0.8-0.8C26.8,121.8,26.5,121.5,26.1,121.5z"/><path d="M120,29.6c0.4,0,0.8-0.3,0.8-0.8v-12c0-0.4-0.3-0.8-0.8-0.8s-0.8,0.3-0.8,0.8v12C119.3,29.3,119.6,29.6,120,29.6z"/><path d="M120,37.4c0.4,0,0.8-0.3,0.8-0.8v-3.9c0-0.4-0.3-0.8-0.8-0.8s-0.8,0.3-0.8,0.8v3.9C119.3,37.1,119.6,37.4,120,37.4z"/><path d="M22.8,77.1h15.6c0.6,0,1.1,0.1,1.7,0.3c0.1,0,0.2,0.1,0.3,0.1c0.3,0,0.5-0.1,0.6-0.4h19.9l-3.3,13h-4.3   c-1.9,0-3.5,1.6-3.5,3.5v0.2c0,1.9,1.6,3.5,3.5,3.5h26.1c1.9,0,3.5-1.6,3.5-3.5v-0.2c0-1.9-1.6-3.5-3.5-3.5h-4.3l-3.3-13h38.2   c2.9,0,5.3-2.4,5.3-5.3V15.9c0-2.9-2.4-5.3-5.3-5.3H22.8c-2.9,0-5.3,2.4-5.3,5.3v55.8C17.5,74.7,19.8,77.1,22.8,77.1z M81.4,93.6   v0.2c0,1.1-0.9,2-2,2H53.3c-1.1,0-2-0.9-2-2v-0.2c0-1.1,0.9-2,2-2h4.9h16.3h4.9C80.5,91.6,81.4,92.5,81.4,93.6z M73.5,90.1H59.2   l3.3-13h7.7L73.5,90.1z M22.8,12.2h87.2c2.1,0,3.8,1.7,3.8,3.8v1.2H19v-1.2C19,13.9,20.7,12.2,22.8,12.2z M19,18.6h94.7v53.1   c0,2.1-1.7,3.8-3.8,3.8H70.8h-8.9H22.8c-2.1,0-3.8-1.7-3.8-3.8V18.6z"/><path d="M24.4,45.2h67.7c0.4,0,0.8-0.3,0.8-0.8V22.2c0-0.4-0.3-0.8-0.8-0.8H24.4c-0.4,0-0.8,0.3-0.8,0.8v22.2   C23.6,44.9,23.9,45.2,24.4,45.2z M25.1,23h66.2v20.7H25.1V23z"/><path d="M97.6,31h10.7c0.4,0,0.8-0.3,0.8-0.8v-8c0-0.4-0.3-0.8-0.8-0.8H97.6c-0.4,0-0.8,0.3-0.8,0.8v8C96.9,30.7,97.2,31,97.6,31z    M98.4,23h9.2v6.5h-9.2V23z"/><path d="M97.6,45.2h10.7c0.4,0,0.8-0.3,0.8-0.8v-8c0-0.4-0.3-0.8-0.8-0.8H97.6c-0.4,0-0.8,0.3-0.8,0.8v8   C96.9,44.9,97.2,45.2,97.6,45.2z M98.4,37.2h9.2v6.5h-9.2V37.2z"/><path d="M97.6,57.9h10.7c0.4,0,0.8-0.3,0.8-0.8v-8c0-0.4-0.3-0.8-0.8-0.8H97.6c-0.4,0-0.8,0.3-0.8,0.8v8   C96.9,57.6,97.2,57.9,97.6,57.9z M98.4,49.9h9.2v6.5h-9.2V49.9z"/><path d="M97.6,72.2h10.7c0.4,0,0.8-0.3,0.8-0.8v-8c0-0.4-0.3-0.8-0.8-0.8H97.6c-0.4,0-0.8,0.3-0.8,0.8v8   C96.9,71.8,97.2,72.2,97.6,72.2z M98.4,64.1h9.2v6.5h-9.2V64.1z"/><path d="M24.4,72.2h30.8c0.4,0,0.8-0.3,0.8-0.8V49.3c0-0.4-0.3-0.8-0.8-0.8H24.4c-0.4,0-0.8,0.3-0.8,0.8v22.1   C23.6,71.8,23.9,72.2,24.4,72.2z M25.1,50.1h29.2v20.6H25.1V50.1z"/><path d="M92.1,48.6H61.3c-0.4,0-0.8,0.3-0.8,0.8v22.1c0,0.4,0.3,0.8,0.8,0.8h30.8c0.4,0,0.8-0.3,0.8-0.8V49.3   C92.8,48.9,92.5,48.6,92.1,48.6z M91.3,70.6H62.1V50.1h29.2V70.6z"/><path d="M24.4,15.2h0.4c0.4,0,0.8-0.3,0.8-0.8s-0.3-0.8-0.8-0.8h-0.4c-0.4,0-0.8,0.3-0.8,0.8S23.9,15.2,24.4,15.2z"/><path d="M27.7,15.2h0.4c0.4,0,0.8-0.3,0.8-0.8s-0.3-0.8-0.8-0.8h-0.4c-0.4,0-0.8,0.3-0.8,0.8S27.3,15.2,27.7,15.2z"/><path d="M31,15.2h0.4c0.4,0,0.8-0.3,0.8-0.8s-0.3-0.8-0.8-0.8H31c-0.4,0-0.8,0.3-0.8,0.8S30.6,15.2,31,15.2z"/><path d="M85.8,37.5H31c-0.4,0-0.8,0.3-0.8,0.8c0,0.4,0.3,0.8,0.8,0.8h54.7c0.4,0,0.8-0.3,0.8-0.8C86.5,37.9,86.2,37.5,85.8,37.5z"/><path d="M85.8,32H31c-0.4,0-0.8,0.3-0.8,0.8c0,0.4,0.3,0.8,0.8,0.8h54.7c0.4,0,0.8-0.3,0.8-0.8C86.5,32.4,86.2,32,85.8,32z"/><path d="M49.3,65.5h-19c-0.4,0-0.8,0.3-0.8,0.8c0,0.4,0.3,0.8,0.8,0.8h19c0.4,0,0.8-0.3,0.8-0.8C50,65.9,49.7,65.5,49.3,65.5z"/><path d="M49.3,61.6h-19c-0.4,0-0.8,0.3-0.8,0.8c0,0.4,0.3,0.8,0.8,0.8h19c0.4,0,0.8-0.3,0.8-0.8C50,61.9,49.7,61.6,49.3,61.6z"/><path d="M67.2,67h19c0.4,0,0.8-0.3,0.8-0.8c0-0.4-0.3-0.8-0.8-0.8h-19c-0.4,0-0.8,0.3-0.8,0.8C66.4,66.7,66.8,67,67.2,67z"/><path d="M67.2,63.1h19c0.4,0,0.8-0.3,0.8-0.8c0-0.4-0.3-0.8-0.8-0.8h-19c-0.4,0-0.8,0.3-0.8,0.8C66.4,62.8,66.8,63.1,67.2,63.1z"/></g><text x="0" y="143" fill="#000000" font-size="5px" font-weight="bold" font-family="'Helvetica Neue', Helvetica, Arial-Unicode, Arial, Sans-serif">Created by Creative Stall</text><text x="0" y="148" fill="#000000" font-size="5px" font-weight="bold" font-family="'Helvetica Neue', Helvetica, Arial-Unicode, Arial, Sans-serif">from the Noun Project</text></svg>