<svg xmlns="http://www.w3.org/2000/svg" xmlns:xlink="http://www.w3.org/1999/xlink" version="1.1" x="0px" y="0px" viewBox="0 0 67 83.75" enable-background="new 0 0 67 67" xml:space="preserve"><g><path d="M32.8681641,44.4155769h-9.7822266c-0.2763672,0-0.5,0.2236328-0.5,0.5v7.7514648c0,0.2763672,0.2236328,0.5,0.5,0.5   h9.7822266c0.2763672,0,0.5-0.2236328,0.5-0.5v-7.7514648C33.3681641,44.6392097,33.1445313,44.4155769,32.8681641,44.4155769z    M32.3681641,52.1670418h-8.7822266v-6.7514648h8.7822266V52.1670418z"/><path d="M46.5722656,44.4155769h-9.7915039c-0.2763672,0-0.5,0.2236328-0.5,0.5v7.7514648c0,0.2763672,0.2236328,0.5,0.5,0.5   h9.7915039c0.2763557,0,0.5-0.2236328,0.5-0.5v-7.7514648C47.0722656,44.6392097,46.8486214,44.4155769,46.5722656,44.4155769z    M46.0722656,52.1670418h-8.7915039v-6.7514648h8.7915039V52.1670418z"/><path d="M60.2670898,44.4155769h-9.7822266c-0.2763672,0-0.5,0.2236328-0.5,0.5v7.7514648c0,0.2763672,0.2236328,0.5,0.5,0.5   h9.7822266c0.2763672,0,0.5-0.2236328,0.5-0.5v-7.7514648C60.7670898,44.6392097,60.543457,44.4155769,60.2670898,44.4155769z    M59.7670898,52.1670418h-8.7822266v-6.7514648h8.7822266V52.1670418z"/><path d="M19.0410156,66.073288H65.480957c0.2763672,0,0.5-0.2236328,0.5-0.5c0-9.5880089,0-47.6337891,0-53.9501915   c0-0.2763672-0.2236328-0.5-0.5-0.5H44.7011719c0.000061-0.144043,0.0023193-9.2929688,0.0024414-9.6962891   c0-0.2763672-0.2236328-0.4999999-0.5-0.4999999H1.519043c-0.2763672,0-0.5,0.2236328-0.5,0.4999999   c0,0.3896484,0,0.5061035,0,0.4929199C1.019165,3.5525384,1.0195923,9.9849119,1.0209961,31.8032703   c0,0.2763691,0.2236328,0.5000019,0.5,0.5000019h17.0200195V65.573288   C18.5410156,65.8496552,18.7646484,66.073288,19.0410156,66.073288z M44.7011719,14.8516111h17.4086914   c0.2763672,0,0.5-0.2236328,0.5-0.5s-0.2236328-0.5-0.5-0.5H44.7011719v-1.7285156H64.980957v4.4604483H44.7011719V14.8516111z    M44.7011719,21.5835438H60.980957v6.2397461H44.7011719V21.5835438z M44.7011719,31.8032703v-0.5200195h16.7700195   c0.2763672,0,0.5-0.2236328,0.5-0.5s-0.2236328-0.5-0.5-0.5H44.7011719v-1.4599609H61.480957c0.2763672,0,0.5-0.2236328,0.5-0.5   v-7.2397461c0-0.2763672-0.2236328-0.5-0.5-0.5H44.7011719v-3H64.980957V65.073288H19.5410156V32.3032722   c6.3081665,0,18.3141479,0,24.6601563,0C44.4775391,32.3032722,44.7011719,32.0796394,44.7011719,31.8032703z M2.019043,1.926806   h41.6845703v4.5102539H2.019043V1.926806z M2.0209961,31.3032703V7.4434075h41.6801758c0,20.703125,0,3.0983891,0,23.8598633   C29.5673218,31.3032703,17.0721436,31.3032703,2.0209961,31.3032703z"/><path d="M32.6464844,55.7065926h-9.5605469c-0.2763672,0-0.5,0.2236328-0.5,0.5s0.2236328,0.5,0.5,0.5h9.5605469   c0.2763672,0,0.5-0.2236328,0.5-0.5S32.9228516,55.7065926,32.6464844,55.7065926z"/><path d="M32.6464844,58.389698h-9.5605469c-0.2763672,0-0.5,0.2236328-0.5,0.5s0.2236328,0.5,0.5,0.5h9.5605469   c0.2763672,0,0.5-0.2236328,0.5-0.5S32.9228516,58.389698,32.6464844,58.389698z"/><path d="M29.3344727,61.0728035h-6.2485352c-0.2763672,0-0.5,0.2236328-0.5,0.5s0.2236328,0.5,0.5,0.5h6.2485352   c0.2763672,0,0.5-0.2236328,0.5-0.5S29.6108398,61.0728035,29.3344727,61.0728035z"/><path d="M46.3413086,55.7065926h-9.5605469c-0.2763672,0-0.5,0.2236328-0.5,0.5s0.2236328,0.5,0.5,0.5h9.5605469   c0.2763672,0,0.5-0.2236328,0.5-0.5S46.6176758,55.7065926,46.3413086,55.7065926z"/><path d="M46.3413086,58.389698h-9.5605469c-0.2763672,0-0.5,0.2236328-0.5,0.5s0.2236328,0.5,0.5,0.5h9.5605469   c0.2763672,0,0.5-0.2236328,0.5-0.5S46.6176758,58.389698,46.3413086,58.389698z"/><path d="M43.0297852,61.0728035h-6.2490234c-0.2763672,0-0.5,0.2236328-0.5,0.5s0.2236328,0.5,0.5,0.5h6.2490234   c0.2763672,0,0.5-0.2236328,0.5-0.5S43.3061523,61.0728035,43.0297852,61.0728035z"/><path d="M60.0366211,55.7065926h-9.5605469c-0.2763672,0-0.5,0.2236328-0.5,0.5s0.2236328,0.5,0.5,0.5h9.5605469   c0.2763672,0,0.5-0.2236328,0.5-0.5S60.3129883,55.7065926,60.0366211,55.7065926z"/><path d="M60.0366211,58.389698h-9.5605469c-0.2763672,0-0.5,0.2236328-0.5,0.5s0.2236328,0.5,0.5,0.5h9.5605469   c0.2763672,0,0.5-0.2236328,0.5-0.5S60.3129883,58.389698,60.0366211,58.389698z"/><path d="M56.7246094,61.0728035h-6.2485352c-0.2763672,0-0.5,0.2236328-0.5,0.5s0.2236328,0.5,0.5,0.5h6.2485352   c0.2763672,0,0.5-0.2236328,0.5-0.5S57.0009766,61.0728035,56.7246094,61.0728035z"/><path d="M41.1992188,9.4370604H4.519043c-0.2763672,0-0.5,0.2236328-0.5,0.5v18.8598633c0,0.2763672,0.2236328,0.5,0.5,0.5   h36.6801758c0.2763672,0,0.5-0.2236328,0.5-0.5V9.9370604C41.6992188,9.6606932,41.4755859,9.4370604,41.1992188,9.4370604z    M40.6992188,28.2969227H5.019043V10.4370604h35.6801758V28.2969227z"/><path d="M40.8046875,3.6821771H23.7749023c-0.2763672,0-0.5,0.2236328-0.5,0.5s0.2236328,0.5,0.5,0.5h17.0297852   c0.2763672,0,0.5-0.2236328,0.5-0.5S41.0810547,3.6821771,40.8046875,3.6821771z"/><path d="M19.1518555,23.793993c0.1953125,0.1953125,0.5117188,0.1953125,0.7070313,0s0.1953125-0.5117188,0-0.7070313   l-3.7172852-3.7172852l3.7177734-3.7226553c0.1948242-0.1958008,0.1948242-0.512207-0.0004883-0.7075195   c-0.1953125-0.1943359-0.512207-0.1948242-0.7075195,0.0004883l-4.0708008,4.0761709   c-0.1948242,0.1953125-0.1948242,0.5117188,0.0004883,0.7070313L19.1518555,23.793993z"/><path d="M25.8583984,15.6470213l3.7177734,3.7226553l-3.7172852,3.7172852c-0.1953125,0.1953125-0.1953125,0.5117188,0,0.7070313   s0.5117188,0.1953125,0.7070313,0l4.0708008-4.0708008c0.1953125-0.1953125,0.1953125-0.5117188,0.0004883-0.7070313   L26.5664063,14.93999c-0.1953125-0.1953125-0.512207-0.1948242-0.7075195-0.0004883   C25.6635742,15.1348143,25.6635742,15.4512205,25.8583984,15.6470213z"/><path d="M23.0332031,35.8721199h38.4404182c0.2763786,0,0.5-0.2236328,0.5-0.5s-0.2236214-0.5-0.5-0.5H23.0332031   c-0.2763672,0-0.5,0.2236328-0.5,0.5S22.7568359,35.8721199,23.0332031,35.8721199z"/><path d="M23.0332031,39.5166512h38.4404182c0.2763786,0,0.5-0.2236328,0.5-0.5s-0.2236214-0.5-0.5-0.5H23.0332031   c-0.2763672,0-0.5,0.2236328-0.5,0.5S22.7568359,39.5166512,23.0332031,39.5166512z"/><path d="M20.9677734,26.8462391c0.9414063,0,1.7075195-0.7714844,1.7075195-1.7192383   c0-0.5866699-0.2977295-1.1047363-0.7496948-1.4123535l2.3039551-8.2177725   c0.0187378,0.0006104,0.0362549,0.0056152,0.0551147,0.0056152c0.9414063,0,1.7075195-0.7714844,1.7075195-1.7192383   c0-0.9414063-0.7661133-1.7075195-1.7075195-1.7075195s-1.7075195,0.7661133-1.7075195,1.7075195   c0,0.5700684,0.2801514,1.0725098,0.7059326,1.385498l-2.3132324,8.2509756c-0.0007324,0-0.0013428-0.0002441-0.0013428-0.0002441   C18.6999512,23.4194813,18.7198486,26.8462391,20.9677734,26.8462391z M24.284668,13.0757322   c0.3901367,0,0.7075195,0.3173828,0.7075195,0.7075195c0,0.3964844-0.3173828,0.7192383-0.7075195,0.7192383   c-0.0941162,0-0.1821899-0.0202637-0.2636108-0.0527344c-0.0056152-0.0018311-0.0094604-0.0062256-0.0151978-0.0078125   c-0.0023804-0.0007324-0.0048218,0.0001221-0.0072021-0.0004883c-0.2498779-0.1098633-0.4215088-0.359375-0.4215088-0.6582031   C23.5771484,13.393115,23.8945313,13.0757322,24.284668,13.0757322z M20.9677734,24.4194813   c0.3901367,0,0.7075195,0.3173828,0.7075195,0.7075195c0,0.3964844-0.3173828,0.7192383-0.7075195,0.7192383   c-0.3964844,0-0.7070313-0.315918-0.7070313-0.7192383C20.2607422,24.7368641,20.578125,24.4194813,20.9677734,24.4194813z"/><path d="M33.6005859,16.0649891c0.9414063,0,1.7070313-0.7714834,1.7070313-1.7192373   c0-0.9414063-0.765625-1.7075195-1.7070313-1.7075195s-1.7075195,0.7661133-1.7075195,1.7075195   C31.8930664,15.2935057,32.6591797,16.0649891,33.6005859,16.0649891z M33.6005859,13.6382322   c0.3896484,0,0.7070313,0.3173828,0.7070313,0.7075195c0,0.3964844-0.3173828,0.7192383-0.7070313,0.7192383   c-0.3969727,0-0.7075195-0.315918-0.7075195-0.7192383C32.8930664,13.955615,33.2104492,13.6382322,33.6005859,13.6382322z"/><path d="M5.4111328,2.4687982c-0.9414063,0-1.7075195,0.765625-1.7075195,1.7070313   c0,0.9477539,0.7661133,1.7192383,1.7075195,1.7192383s1.7075195-0.7714844,1.7075195-1.7192383   C7.1186523,3.2344232,6.3525391,2.4687982,5.4111328,2.4687982z M5.4111328,4.8950677   c-0.3969727,0-0.7075195-0.315918-0.7075195-0.7192383c0-0.3896484,0.3173828-0.7070313,0.7075195-0.7070313   S6.1186523,3.786181,6.1186523,4.1758294C6.1186523,4.5723138,5.8012695,4.8950677,5.4111328,4.8950677z"/><path d="M10.4868164,2.4687982c-0.9414063,0-1.7075195,0.765625-1.7075195,1.7070313   c0,0.9477539,0.7661133,1.7192383,1.7075195,1.7192383s1.7070313-0.7714844,1.7070313-1.7192383   C12.1938477,3.2344232,11.4282227,2.4687982,10.4868164,2.4687982z M10.4868164,4.8950677   c-0.3969727,0-0.7075195-0.315918-0.7075195-0.7192383c0-0.3896484,0.3173828-0.7070313,0.7075195-0.7070313   c0.3833008,0,0.7070313,0.3237305,0.7070313,0.7070313C11.1938477,4.5723138,10.8764648,4.8950677,10.4868164,4.8950677z"/><path d="M15.5625,2.4687982c-0.9414063,0-1.7075195,0.765625-1.7075195,1.7070313   c0,0.9477539,0.7661133,1.7192383,1.7075195,1.7192383s1.7070313-0.7714844,1.7070313-1.7192383   C17.2695313,3.2344232,16.5039063,2.4687982,15.5625,2.4687982z M15.5625,4.8950677   c-0.3969727,0-0.7075195-0.315918-0.7075195-0.7192383c0-0.3896484,0.3173828-0.7070313,0.7075195-0.7070313   c0.3833008,0,0.7070313,0.3237305,0.7070313,0.7070313C16.2695313,4.5723138,15.9521484,4.8950677,15.5625,4.8950677z"/></g><text x="0" y="82" fill="#000000" font-size="5px" font-weight="bold" font-family="'Helvetica Neue', Helvetica, Arial-Unicode, Arial, Sans-serif">Created by Vectors Point</text><text x="0" y="87" fill="#000000" font-size="5px" font-weight="bold" font-family="'Helvetica Neue', Helvetica, Arial-Unicode, Arial, Sans-serif">from the Noun Project</text></svg>