<svg xmlns="http://www.w3.org/2000/svg" data-name="Layer 1" viewBox="0 0 128 160" x="0px" y="0px"><title>Miscellaneous 44 solid</title><path d="M73.27,83.87l6.83-6.64H87a2,2,0,0,0,0-4H79.29a2,2,0,0,0-1.39.57L70.48,81a2.92,2.92,0,0,1-3.93.41A2,2,0,0,1,66,80a3.14,3.14,0,0,1,1-2.2l5.71-5.55a2,2,0,1,0-2.79-2.87l-2,2h0l-6.4,6.22c-1.18,1.14-3,1.33-3.93.41A2,2,0,0,1,57,76.46a3.13,3.13,0,0,1,1-2.2h0l6.5-6.32a2,2,0,0,0-2.79-2.87L52,74.45c-1.18,1.15-3,1.33-3.93.41a2,2,0,0,1-.58-1.46,3.14,3.14,0,0,1,1-2.2l9.93-9.65a2,2,0,0,0-2.79-2.87L41.51,72.44c-1.18,1.14-3,1.33-3.93.41A2,2,0,0,1,37,71.39a3.13,3.13,0,0,1,1-2.2L52.16,55.43a2,2,0,0,0-2.79-2.87L35.22,66.33A7.48,7.48,0,0,0,33.92,68H24a2,2,0,0,0,0,4h9a5.92,5.92,0,0,0,1.77,3.72,6.21,6.21,0,0,0,4.37,1.71,7.38,7.38,0,0,0,4.78-1.81,5.84,5.84,0,0,0,1.38,2.1,6.21,6.21,0,0,0,4.37,1.71,7.3,7.3,0,0,0,3.61-1,5.87,5.87,0,0,0,1.46,2.33,6.2,6.2,0,0,0,4.37,1.71,7.27,7.27,0,0,0,3.1-.72,5.87,5.87,0,0,0,1.53,2.5A6.21,6.21,0,0,0,68.14,86,7.41,7.41,0,0,0,73.27,83.87Z"/><path d="M30,42a2,2,0,0,0,2,2H62l8.85,8.3c1.29,1.21,1.58,3.16.64,4.26A3.94,3.94,0,0,1,68.89,58a1.62,1.62,0,0,1-1.28-.46l-7.17-5.91a2,2,0,1,0-2.54,3.09l7,5.78A5.59,5.59,0,0,0,68.77,62h.35a7.88,7.88,0,0,0,5.38-2.83c2.31-2.72,1.89-7.11-1-9.77l-9.43-8.85A2,2,0,0,0,62.75,40H32A2,2,0,0,0,30,42Z"/><path d="M72,42a2,2,0,0,0,2,2H96a2,2,0,0,0,0-4H74A2,2,0,0,0,72,42Z"/><path d="M70,32a2,2,0,0,0,2-2V8h44.35a6,6,0,1,0,0-4H70a2,2,0,0,0-2,2V30A2,2,0,0,0,70,32Z"/><path d="M84,34V20H94.35a6,6,0,1,0,0-4H82a2,2,0,0,0-2,2V34a2,2,0,0,0,4,0Z"/><path d="M6,12a6,6,0,0,0,5.65-4H56V30a2,2,0,0,0,4,0V6a2,2,0,0,0-2-2H11.65A6,6,0,1,0,6,12Z"/><path d="M46,36a2,2,0,0,0,2-2V18a2,2,0,0,0-2-2H33.65a6,6,0,1,0,0,4H44V34A2,2,0,0,0,46,36Z"/><path d="M39,56a2,2,0,0,0-2-2H10V37.65a6,6,0,1,0-4,0V56a2,2,0,0,0,2,2H37A2,2,0,0,0,39,56Z"/><path d="M120,26a6,6,0,0,0-2,11.65V54H84a2,2,0,0,0,0,4h36a2,2,0,0,0,2-2V37.65A6,6,0,0,0,120,26Z"/><path d="M122,116a6,6,0,0,0-5.65,4H72V92a2,2,0,0,0-4,0v30a2,2,0,0,0,2,2h46.35a6,6,0,1,0,5.65-8Z"/><path d="M82,84a2,2,0,0,0-2,2v24a2,2,0,0,0,2,2H94.35a6,6,0,1,0,0-4H84V86A2,2,0,0,0,82,84Z"/><path d="M58,90a2,2,0,0,0-2,2v28H11.65a6,6,0,1,0,0,4H58a2,2,0,0,0,2-2V92A2,2,0,0,0,58,90Z"/><path d="M33.65,112H46a2,2,0,0,0,2-2V86a2,2,0,0,0-4,0v22H33.65a6,6,0,1,0,0,4Z"/><path d="M16,72a2,2,0,0,0,0-4H8a2,2,0,0,0-2,2V90.35a6,6,0,1,0,4,0V72Z"/><path d="M114,96a6,6,0,1,0,8-5.65V70a2,2,0,0,0-2-2H104a2,2,0,0,0-1.43.6l-4.41,4.49H95a2,2,0,0,0,0,4h4a2,2,0,0,0,1.43-.6L104.84,72H118V90.35A6,6,0,0,0,114,96Z"/><text x="0" y="143" fill="#000000" font-size="5px" font-weight="bold" font-family="'Helvetica Neue', Helvetica, Arial-Unicode, Arial, Sans-serif">Created by priyanka</text><text x="0" y="148" fill="#000000" font-size="5px" font-weight="bold" font-family="'Helvetica Neue', Helvetica, Arial-Unicode, Arial, Sans-serif">from the Noun Project</text></svg>